<svg width="58" height="58" viewBox="0 0 58 58" fill="none" xmlns="http://www.w3.org/2000/svg">
<path fill-rule="evenodd" clip-rule="evenodd" d="M52.8307 10.2574C55.6181 10.2574 57.8777 8.08957 57.8777 5.41545C57.8777 2.74134 55.6181 0.573532 52.8307 0.573532C50.0434 0.573532 47.7838 2.74134 47.7838 5.41545C47.7838 8.08957 50.0434 10.2574 52.8307 10.2574ZM52.8307 22.057C55.6181 22.057 57.8777 19.8892 57.8777 17.2151C57.8777 14.5409 55.6181 12.3732 52.8307 12.3732C50.0434 12.3732 47.7838 14.5409 47.7838 17.2151C47.7838 19.8892 50.0434 22.057 52.8307 22.057ZM34.2969 29.0147C34.2969 31.6889 32.0373 33.8566 29.25 33.8566C26.4627 33.8566 24.2031 31.6889 24.2031 29.0147C24.2031 26.3406 26.4627 24.1728 29.25 24.1728C32.0373 24.1728 34.2969 26.3406 34.2969 29.0147ZM34.2969 40.8143C34.2969 43.4884 32.0373 45.6563 29.25 45.6563C26.4627 45.6563 24.2031 43.4884 24.2031 40.8143C24.2031 38.1403 26.4627 35.9725 29.25 35.9725C32.0373 35.9725 34.2969 38.1403 34.2969 40.8143ZM17.4596 45.6563C20.247 45.6563 22.5066 43.4884 22.5066 40.8143C22.5066 38.1403 20.247 35.9725 17.4596 35.9725C14.6723 35.9725 12.4127 38.1403 12.4127 40.8143C12.4127 43.4884 14.6723 45.6563 17.4596 45.6563ZM10.7162 52.614C10.7162 55.2881 8.45665 57.456 5.66929 57.456C2.88193 57.456 0.622341 55.2881 0.622341 52.614C0.622341 49.9398 2.88193 47.772 5.66929 47.772C8.45665 47.772 10.7162 49.9398 10.7162 52.614ZM41.0404 45.6563C43.8277 45.6563 46.0873 43.4884 46.0873 40.8143C46.0873 38.1403 43.8277 35.9725 41.0404 35.9725C38.253 35.9725 35.9934 38.1403 35.9934 40.8143C35.9934 43.4884 38.253 45.6563 41.0404 45.6563ZM57.8777 29.0147C57.8777 31.6889 55.6181 33.8566 52.8307 33.8566C50.0434 33.8566 47.7838 31.6889 47.7838 29.0147C47.7838 26.3406 50.0434 24.1728 52.8307 24.1728C55.6181 24.1728 57.8777 26.3406 57.8777 29.0147ZM52.8307 45.6563C55.6181 45.6563 57.8777 43.4884 57.8777 40.8143C57.8777 38.1403 55.6181 35.9725 52.8307 35.9725C50.0434 35.9725 47.7838 38.1403 47.7838 40.8143C47.7838 43.4884 50.0434 45.6563 52.8307 45.6563ZM57.8777 52.614C57.8777 55.2881 55.6181 57.456 52.8307 57.456C50.0434 57.456 47.7838 55.2881 47.7838 52.614C47.7838 49.9398 50.0434 47.772 52.8307 47.772C55.6181 47.772 57.8777 49.9398 57.8777 52.614ZM46.0873 17.2151C46.0873 19.8892 43.8277 22.057 41.0404 22.057C38.253 22.057 35.9934 19.8892 35.9934 17.2151C35.9934 14.5409 38.253 12.3732 41.0404 12.3732C43.8277 12.3732 46.0873 14.5409 46.0873 17.2151Z" fill="#FF0000"/>
<path fill-rule="evenodd" clip-rule="evenodd" d="M52.2084 9.68384C54.9957 9.68384 57.2553 7.51603 57.2553 4.84192C57.2553 2.1678 54.9957 0 52.2084 0C49.421 0 47.1615 2.1678 47.1615 4.84192C47.1615 7.51603 49.421 9.68384 52.2084 9.68384ZM52.2084 21.4835C54.9957 21.4835 57.2553 19.3157 57.2553 16.6415C57.2553 13.9674 54.9957 11.7997 52.2084 11.7997C49.421 11.7997 47.1615 13.9674 47.1615 16.6415C47.1615 19.3157 49.421 21.4835 52.2084 21.4835ZM33.6746 28.4412C33.6746 31.1153 31.415 33.2831 28.6277 33.2831C25.8403 33.2831 23.5807 31.1153 23.5807 28.4412C23.5807 25.7671 25.8403 23.5992 28.6277 23.5992C31.415 23.5992 33.6746 25.7671 33.6746 28.4412ZM33.6746 40.2408C33.6746 42.9149 31.415 45.0827 28.6277 45.0827C25.8403 45.0827 23.5807 42.9149 23.5807 40.2408C23.5807 37.5667 25.8403 35.3989 28.6277 35.3989C31.415 35.3989 33.6746 37.5667 33.6746 40.2408ZM16.8373 45.0827C19.6246 45.0827 21.8842 42.9149 21.8842 40.2408C21.8842 37.5667 19.6246 35.3989 16.8373 35.3989C14.05 35.3989 11.7904 37.5667 11.7904 40.2408C11.7904 42.9149 14.05 45.0827 16.8373 45.0827ZM10.0939 52.0405C10.0939 54.7146 7.83431 56.8824 5.04694 56.8824C2.25959 56.8824 0 54.7146 0 52.0405C0 49.3663 2.25959 47.1985 5.04694 47.1985C7.83431 47.1985 10.0939 49.3663 10.0939 52.0405ZM40.418 45.0827C43.2054 45.0827 45.465 42.9149 45.465 40.2408C45.465 37.5667 43.2054 35.3989 40.418 35.3989C37.6307 35.3989 35.3711 37.5667 35.3711 40.2408C35.3711 42.9149 37.6307 45.0827 40.418 45.0827ZM57.2553 28.4412C57.2553 31.1153 54.9957 33.2831 52.2084 33.2831C49.421 33.2831 47.1615 31.1153 47.1615 28.4412C47.1615 25.7671 49.421 23.5992 52.2084 23.5992C54.9957 23.5992 57.2553 25.7671 57.2553 28.4412ZM52.2084 45.0827C54.9957 45.0827 57.2553 42.9149 57.2553 40.2408C57.2553 37.5667 54.9957 35.3989 52.2084 35.3989C49.421 35.3989 47.1615 37.5667 47.1615 40.2408C47.1615 42.9149 49.421 45.0827 52.2084 45.0827ZM57.2553 52.0405C57.2553 54.7146 54.9957 56.8824 52.2084 56.8824C49.421 56.8824 47.1615 54.7146 47.1615 52.0405C47.1615 49.3663 49.421 47.1985 52.2084 47.1985C54.9957 47.1985 57.2553 49.3663 57.2553 52.0405ZM45.465 16.6415C45.465 19.3157 43.2054 21.4835 40.418 21.4835C37.6307 21.4835 35.3711 19.3157 35.3711 16.6415C35.3711 13.9674 37.6307 11.7997 40.418 11.7997C43.2054 11.7997 45.465 13.9674 45.465 16.6415Z" fill="black"/>
<path fill-rule="evenodd" clip-rule="evenodd" d="M17.4596 10.2574C20.247 10.2574 22.5066 8.08957 22.5066 5.41545C22.5066 2.74134 20.247 0.573532 17.4596 0.573532C14.6723 0.573532 12.4127 2.74134 12.4127 5.41545C12.4127 8.08957 14.6723 10.2574 17.4596 10.2574ZM5.66929 33.8566C8.45665 33.8566 10.7162 31.6889 10.7162 29.0147C10.7162 26.3406 8.45665 24.1728 5.66929 24.1728C2.88193 24.1728 0.622341 26.3406 0.622341 29.0147C0.622341 31.6889 2.88193 33.8566 5.66929 33.8566ZM29.25 57.456C32.0373 57.456 34.2969 55.2881 34.2969 52.614C34.2969 49.9398 32.0373 47.772 29.25 47.772C26.4627 47.772 24.2031 49.9398 24.2031 52.614C24.2031 55.2881 26.4627 57.456 29.25 57.456ZM10.7162 40.8143C10.7162 43.4884 8.45665 45.6563 5.66929 45.6563C2.88193 45.6563 0.622341 43.4884 0.622341 40.8143C0.622341 38.1403 2.88193 35.9725 5.66929 35.9725C8.45665 35.9725 10.7162 38.1403 10.7162 40.8143ZM22.5066 17.2151C22.5066 19.8892 20.247 22.057 17.4596 22.057C14.6723 22.057 12.4127 19.8892 12.4127 17.2151C12.4127 14.5409 14.6723 12.3732 17.4596 12.3732C20.247 12.3732 22.5066 14.5409 22.5066 17.2151ZM17.4596 57.456C20.247 57.456 22.5066 55.2881 22.5066 52.614C22.5066 49.9398 20.247 47.772 17.4596 47.772C14.6723 47.772 12.4127 49.9398 12.4127 52.614C12.4127 55.2881 14.6723 57.456 17.4596 57.456ZM10.7162 5.41545C10.7162 8.08957 8.45665 10.2574 5.66929 10.2574C2.88193 10.2574 0.622341 8.08957 0.622341 5.41545C0.622341 2.74134 2.88193 0.573532 5.66929 0.573532C8.45665 0.573532 10.7162 2.74134 10.7162 5.41545ZM5.66929 22.057C8.45665 22.057 10.7162 19.8892 10.7162 17.2151C10.7162 14.5409 8.45665 12.3732 5.66929 12.3732C2.88193 12.3732 0.622341 14.5409 0.622341 17.2151C0.622341 19.8892 2.88193 22.057 5.66929 22.057ZM46.0873 29.0147C46.0873 31.6889 43.8277 33.8566 41.0404 33.8566C38.253 33.8566 35.9934 31.6889 35.9934 29.0147C35.9934 26.3406 38.253 24.1728 41.0404 24.1728C43.8277 24.1728 46.0873 26.3406 46.0873 29.0147ZM41.0404 57.456C43.8277 57.456 46.0873 55.2881 46.0873 52.614C46.0873 49.9398 43.8277 47.772 41.0404 47.772C38.253 47.772 35.9934 49.9398 35.9934 52.614C35.9934 55.2881 38.253 57.456 41.0404 57.456ZM22.5066 29.0147C22.5066 31.6889 20.247 33.8566 17.4596 33.8566C14.6723 33.8566 12.4127 31.6889 12.4127 29.0147C12.4127 26.3406 14.6723 24.1728 17.4596 24.1728C20.247 24.1728 22.5066 26.3406 22.5066 29.0147ZM29.25 10.2574C32.0373 10.2574 34.2969 8.08957 34.2969 5.41545C34.2969 2.74134 32.0373 0.573532 29.25 0.573532C26.4627 0.573532 24.2031 2.74134 24.2031 5.41545C24.2031 8.08957 26.4627 10.2574 29.25 10.2574ZM34.2969 17.2151C34.2969 19.8892 32.0373 22.057 29.25 22.057C26.4627 22.057 24.2031 19.8892 24.2031 17.2151C24.2031 14.5409 26.4627 12.3732 29.25 12.3732C32.0373 12.3732 34.2969 14.5409 34.2969 17.2151ZM41.0404 10.2574C43.8277 10.2574 46.0873 8.08957 46.0873 5.41545C46.0873 2.74134 43.8277 0.573532 41.0404 0.573532C38.253 0.573532 35.9934 2.74134 35.9934 5.41545C35.9934 8.08957 38.253 10.2574 41.0404 10.2574Z" fill="black"/>
<path fill-rule="evenodd" clip-rule="evenodd" d="M16.8373 9.68384C19.6246 9.68384 21.8842 7.51603 21.8842 4.84192C21.8842 2.1678 19.6246 0 16.8373 0C14.05 0 11.7904 2.1678 11.7904 4.84192C11.7904 7.51603 14.05 9.68384 16.8373 9.68384ZM5.04694 33.2831C7.83431 33.2831 10.0939 31.1153 10.0939 28.4412C10.0939 25.7671 7.83431 23.5992 5.04694 23.5992C2.25959 23.5992 0 25.7671 0 28.4412C0 31.1153 2.25959 33.2831 5.04694 33.2831ZM28.6277 56.8824C31.415 56.8824 33.6746 54.7146 33.6746 52.0405C33.6746 49.3663 31.415 47.1985 28.6277 47.1985C25.8403 47.1985 23.5807 49.3663 23.5807 52.0405C23.5807 54.7146 25.8403 56.8824 28.6277 56.8824ZM10.0939 40.2408C10.0939 42.9149 7.83431 45.0827 5.04694 45.0827C2.25959 45.0827 0 42.9149 0 40.2408C0 37.5667 2.25959 35.3989 5.04694 35.3989C7.83431 35.3989 10.0939 37.5667 10.0939 40.2408ZM21.8842 16.6415C21.8842 19.3157 19.6246 21.4835 16.8373 21.4835C14.05 21.4835 11.7904 19.3157 11.7904 16.6415C11.7904 13.9674 14.05 11.7997 16.8373 11.7997C19.6246 11.7997 21.8842 13.9674 21.8842 16.6415ZM16.8373 56.8824C19.6246 56.8824 21.8842 54.7146 21.8842 52.0405C21.8842 49.3663 19.6246 47.1985 16.8373 47.1985C14.05 47.1985 11.7904 49.3663 11.7904 52.0405C11.7904 54.7146 14.05 56.8824 16.8373 56.8824ZM10.0939 4.84192C10.0939 7.51603 7.83431 9.68384 5.04694 9.68384C2.25959 9.68384 0 7.51603 0 4.84192C0 2.1678 2.25959 0 5.04694 0C7.83431 0 10.0939 2.1678 10.0939 4.84192ZM5.04694 21.4835C7.83431 21.4835 10.0939 19.3157 10.0939 16.6415C10.0939 13.9674 7.83431 11.7997 5.04694 11.7997C2.25959 11.7997 0 13.9674 0 16.6415C0 19.3157 2.25959 21.4835 5.04694 21.4835ZM45.465 28.4412C45.465 31.1153 43.2054 33.2831 40.418 33.2831C37.6307 33.2831 35.3711 31.1153 35.3711 28.4412C35.3711 25.7671 37.6307 23.5992 40.418 23.5992C43.2054 23.5992 45.465 25.7671 45.465 28.4412ZM40.418 56.8824C43.2054 56.8824 45.465 54.7146 45.465 52.0405C45.465 49.3663 43.2054 47.1985 40.418 47.1985C37.6307 47.1985 35.3711 49.3663 35.3711 52.0405C35.3711 54.7146 37.6307 56.8824 40.418 56.8824ZM21.8842 28.4412C21.8842 31.1153 19.6246 33.2831 16.8373 33.2831C14.05 33.2831 11.7904 31.1153 11.7904 28.4412C11.7904 25.7671 14.05 23.5992 16.8373 23.5992C19.6246 23.5992 21.8842 25.7671 21.8842 28.4412ZM28.6277 9.68384C31.415 9.68384 33.6746 7.51603 33.6746 4.84192C33.6746 2.1678 31.415 0 28.6277 0C25.8403 0 23.5807 2.1678 23.5807 4.84192C23.5807 7.51603 25.8403 9.68384 28.6277 9.68384ZM33.6746 16.6415C33.6746 19.3157 31.415 21.4835 28.6277 21.4835C25.8403 21.4835 23.5807 19.3157 23.5807 16.6415C23.5807 13.9674 25.8403 11.7997 28.6277 11.7997C31.415 11.7997 33.6746 13.9674 33.6746 16.6415ZM40.418 9.68384C43.2054 9.68384 45.465 7.51603 45.465 4.84192C45.465 2.1678 43.2054 0 40.418 0C37.6307 0 35.3711 2.1678 35.3711 4.84192C35.3711 7.51603 37.6307 9.68384 40.418 9.68384Z" fill="#ECECEC"/>
</svg>
